#define 14350_f718e55ff6c19e7722206f96024ae6dfb04629f255460f738207635f2d61f765_width 62
#define 14350_f718e55ff6c19e7722206f96024ae6dfb04629f255460f738207635f2d61f765_height 21
static char 14350_f718e55ff6c19e7722206f96024ae6dfb04629f255460f738207635f2d61f765_bits[] = {
  0x00, 0x00, 0x00, 0x00, 0x00, 0x00, 0x00, 0x00, 0x00, 0x00, 0x00, 0x00, 
  0x00, 0x00, 0x00, 0x00, 0x00, 0x00, 0x00, 0x00, 0x00, 0x00, 0x00, 0x00, 
  0x00, 0x00, 0x00, 0x00, 0x00, 0x00, 0x00, 0x00, 0x00, 0x00, 0x00, 0x00, 
  0x00, 0x00, 0x00, 0x00, 0x00, 0x00, 0x00, 0x00, 0x00, 0x00, 0x00, 0x00, 
  0x00, 0x00, 0x00, 0x00, 0x00, 0x00, 0x00, 0x00, 0x00, 0xF8, 0x0F, 0xF0, 
  0x1F, 0xE0, 0x3F, 0x00, 0x00, 0xFE, 0x1F, 0xFC, 0x3F, 0xF8, 0x7F, 0x00, 
  0x00, 0xFF, 0x17, 0xFE, 0x2F, 0xFC, 0x5F, 0x00, 0x80, 0xFF, 0x17, 0xFF, 
  0x2F, 0xFE, 0x5F, 0x00, 0x00, 0xFF, 0x17, 0xFE, 0x2F, 0xFC, 0x5F, 0x00, 
  0x00, 0xFE, 0x17, 0xFC, 0x2F, 0xF8, 0x5F, 0x00, 0x00, 0xF8, 0x0F, 0xF0, 
  0x1F, 0xE0, 0x3F, 0x00, 0x00, 0x00, 0x00, 0x00, 0x00, 0x00, 0x00, 0x00, 
  0x00, 0x00, 0x00, 0x00, 0x00, 0x00, 0x00, 0x00, 0x00, 0x00, 0x00, 0x00, 
  0x00, 0x00, 0x00, 0x00, 0x00, 0x00, 0x00, 0x00, 0x00, 0x00, 0x00, 0x00, 
  0x00, 0x00, 0x00, 0x00, 0x00, 0x00, 0x00, 0x00, 0x00, 0x00, 0x00, 0x00, 
  0x00, 0x00, 0x00, 0x00, 0x00, 0x00, 0x00, 0x00, 0x00, 0x00, 0x00, 0x00, 
  };
