#define 23534_744ad9002a1e4d8564327b62d4e0a96462161d626894b9a85147bc4aecb8c888_width 62
#define 23534_744ad9002a1e4d8564327b62d4e0a96462161d626894b9a85147bc4aecb8c888_height 21
static char 23534_744ad9002a1e4d8564327b62d4e0a96462161d626894b9a85147bc4aecb8c888_bits[] = {
  0x00, 0x00, 0x00, 0x00, 0x00, 0x00, 0x00, 0x00, 0x00, 0x00, 0x00, 0x00, 
  0x00, 0x00, 0x00, 0x00, 0x00, 0x00, 0x00, 0x00, 0x00, 0x00, 0x00, 0x00, 
  0x00, 0x00, 0x00, 0x00, 0x00, 0x00, 0x00, 0x00, 0x00, 0x00, 0x00, 0x00, 
  0x10, 0x00, 0x00, 0x00, 0x00, 0x00, 0x00, 0x00, 0x18, 0x00, 0x00, 0x00, 
  0x00, 0x00, 0x00, 0x00, 0x0C, 0x00, 0x00, 0x00, 0x00, 0x00, 0x00, 0xF0, 
  0x16, 0x00, 0x00, 0x00, 0x00, 0x00, 0x00, 0x7C, 0x3B, 0x00, 0x00, 0x00, 
  0x00, 0x00, 0x00, 0xBE, 0x2D, 0x00, 0x00, 0x00, 0x00, 0x00, 0x00, 0xDF, 
  0x2E, 0x00, 0x00, 0x00, 0x00, 0x00, 0x00, 0x6E, 0x2F, 0x00, 0x00, 0x00, 
  0x00, 0x00, 0x00, 0xB4, 0x2F, 0x00, 0x00, 0x00, 0x00, 0x00, 0x00, 0xD8, 
  0x1F, 0x00, 0x00, 0x00, 0x00, 0x00, 0x00, 0x0C, 0x00, 0x00, 0x00, 0x00, 
  0x00, 0x00, 0x00, 0x06, 0x00, 0x00, 0x00, 0x00, 0x00, 0x00, 0x00, 0x02, 
  0x00, 0x00, 0x00, 0x00, 0x00, 0x00, 0x00, 0x00, 0x00, 0x00, 0x00, 0x00, 
  0x00, 0x00, 0x00, 0x00, 0x00, 0x00, 0x00, 0x00, 0x00, 0x00, 0x00, 0x00, 
  0x00, 0x00, 0x00, 0x00, 0x00, 0x00, 0x00, 0x00, 0x00, 0x00, 0x00, 0x00, 
  };
